<svg id="f615def0-53d3-4715-8cf8-5fa1aac25238" data-name="Layer 1" xmlns="http://www.w3.org/2000/svg" viewBox="0 0 35.38 27.23"><defs><style>.ed2b8c02-1f07-4642-9c28-b903d76e6639{fill:#010101;}</style></defs><path class="ed2b8c02-1f07-4642-9c28-b903d76e6639" d="M290.94,383.26l12.3,13.95a3.67,3.67,0,0,0,5.52,0l12.08-13.71a1.31,1.31,0,0,1,.35-.27,4.27,4.27,0,0,0-1.67-.35h-27a4.27,4.27,0,0,0-1.6.32Z" transform="translate(-288.31 -382.88)"/><path class="ed2b8c02-1f07-4642-9c28-b903d76e6639" d="M323.05,384.84a1.37,1.37,0,0,1-.24.4L310.73,399a6.32,6.32,0,0,1-9.46,0L289,385l-.07-.09a4.14,4.14,0,0,0-.6,2.15v18.88a4.18,4.18,0,0,0,4.17,4.18h27a4.18,4.18,0,0,0,4.17-4.18V387.06A4.18,4.18,0,0,0,323.05,384.84Z" transform="translate(-288.31 -382.88)"/></svg>