<svg id="b4b7dee5-fcc9-44a0-a49d-bb4a376c3e29" data-name="Layer 1" xmlns="http://www.w3.org/2000/svg" viewBox="0 0 35.38 35.38"><defs><style>.eb6ec7bc-b2b0-4639-8ed9-a615af5f7ac3{fill:#010101;}.e77cd17f-55c9-4e50-b371-7e76888bf929,.f6f1d440-a711-48b6-a607-6bc084549b85{fill:#fff;}.f6f1d440-a711-48b6-a607-6bc084549b85{fill-rule:evenodd;}</style></defs><circle class="eb6ec7bc-b2b0-4639-8ed9-a615af5f7ac3" cx="306" cy="396.5" r="17.69" transform="translate(-482.37 -10.36) rotate(-49.13)"/><path class="e77cd17f-55c9-4e50-b371-7e76888bf929" d="M296.44,406.51l1.48-5.5a10.16,10.16,0,1,1,4.05,4Zm5.81-3.54.35.2a8.14,8.14,0,0,0,4.2,1.17,8.28,8.28,0,1,0-7-4l.21.35-.82,3.07Z" transform="translate(-288.31 -378.81)"/><path class="f6f1d440-a711-48b6-a607-6bc084549b85" d="M310.58,397.51a1.7,1.7,0,0,0-1.45-.33c-.38.16-.62.75-.87,1.05a.34.34,0,0,1-.46.1,6.56,6.56,0,0,1-3.29-2.81.39.39,0,0,1,.05-.55,2.27,2.27,0,0,0,.59-1,2.1,2.1,0,0,0-.26-1.15,2.71,2.71,0,0,0-.85-1.28,1.16,1.16,0,0,0-1.26.19,2.53,2.53,0,0,0-.89,2,2.8,2.8,0,0,0,.08.64,5.28,5.28,0,0,0,.62,1.42,11,11,0,0,0,.64,1,10.06,10.06,0,0,0,2.8,2.6,8.68,8.68,0,0,0,1.74.83,3.86,3.86,0,0,0,2,.32,2.43,2.43,0,0,0,1.84-1.37,1.13,1.13,0,0,0,.09-.7C311.62,398,311,397.74,310.58,397.51Z" transform="translate(-288.31 -378.81)"/></svg>