<svg id="b8f74535-cea7-4711-90ec-054eca671f5e" data-name="Layer 1" xmlns="http://www.w3.org/2000/svg" viewBox="0 0 29.24 29.24"><defs><style>.fda1f827-7c28-4dda-8930-f37fb5490db3{fill:#010101;}.ea324d62-8272-4baf-ba6b-a75cafe118cb{fill:#fff;}</style></defs><rect class="fda1f827-7c28-4dda-8930-f37fb5490db3" x="237.13" y="310.35" width="29.24" height="29.24" rx="7.65" transform="translate(339.59 -237.13) rotate(90)"/><path class="ea324d62-8272-4baf-ba6b-a75cafe118cb" d="M245.62,322.25h2.83v9.09h-2.83Zm1.41-4.52a1.64,1.64,0,1,1-1.64,1.63,1.63,1.63,0,0,1,1.64-1.63" transform="translate(-237.13 -310.35)"/><path class="ea324d62-8272-4baf-ba6b-a75cafe118cb" d="M250.22,322.25h2.71v1.24h0a3,3,0,0,1,2.68-1.47c2.86,0,3.39,1.88,3.39,4.33v5h-2.83v-4.42c0-1.06,0-2.41-1.46-2.41s-1.7,1.15-1.7,2.33v4.5h-2.83Z" transform="translate(-237.13 -310.35)"/></svg>